<svg width="16" height="16" viewBox="0 0 16 16" fill="none" xmlns="http://www.w3.org/2000/svg">
<path d="M6.88197 1.11803C7.58578 0.766125 8.41422 0.766125 9.11803 1.11803L14.118 3.61803C14.965 4.04151 15.5 4.90717 15.5 5.8541V10.1459C15.5 11.0928 14.965 11.9585 14.118 12.382L9.11803 14.882C8.41422 15.2339 7.58578 15.2339 6.88197 14.882L1.88197 12.382C1.03501 11.9585 0.5 11.0928 0.5 10.1459V5.8541C0.5 4.90717 1.03501 4.04151 1.88197 3.61803L6.88197 1.11803Z" stroke="black"/>
<path d="M1.92822 10H13.9282C13.9282 10.5523 13.4805 11 12.9282 11H2.92822C2.37594 11 1.92822 10.5523 1.92822 10Z" fill="black" fill-opacity="0.7"/>
<path fill-rule="evenodd" clip-rule="evenodd" d="M2.92822 5C2.37594 5 1.92822 5.44772 1.92822 6V10C1.92822 10.5523 2.37594 11 2.92822 11H12.9282C13.4805 11 13.9282 10.5523 13.9282 10V6C13.9282 5.44772 13.4805 5 12.9282 5H2.92822ZM3.42822 6C3.15208 6 2.92822 6.22386 2.92822 6.5V8.5C2.92822 8.77614 3.15208 9 3.42822 9C3.70437 9 3.92822 8.77614 3.92822 8.5V6.5C3.92822 6.22386 3.70437 6 3.42822 6ZM4.92822 6.5C4.92822 6.22386 5.15208 6 5.42822 6C5.70437 6 5.92822 6.22386 5.92822 6.5V8.5C5.92822 8.77614 5.70437 9 5.42822 9C5.15208 9 4.92822 8.77614 4.92822 8.5V6.5ZM7.42822 6C7.15208 6 6.92822 6.22386 6.92822 6.5V8.5C6.92822 8.77614 7.15208 9 7.42822 9C7.70437 9 7.92822 8.77614 7.92822 8.5V6.5C7.92822 6.22386 7.70437 6 7.42822 6Z" fill="black" fill-opacity="0.7"/>
</svg>
