<?xml version="1.0" encoding="UTF-8" standalone="no"?>
<svg
   version="1.1"
   id="Layer_1"
   x="0px"
   y="0px"
   fill="none"
   stroke="currentColor"
   stroke-linecap="round"
   stroke-linejoin="round"
   stroke-width="2"
   color="#ff0000"
   viewBox="0 0 143.83803 144.99243"
   xml:space="preserve"
   sodipodi:docname="tray-icon.svg"
   width="143.83803"
   height="144.99243"
   inkscape:version="1.2-alpha (0bd5040e, 2022-02-05)"
   xmlns:inkscape="http://www.inkscape.org/namespaces/inkscape"
   xmlns:sodipodi="http://sodipodi.sourceforge.net/DTD/sodipodi-0.dtd"
   xmlns="http://www.w3.org/2000/svg"
   xmlns:svg="http://www.w3.org/2000/svg"><defs
     id="defs102" /><sodipodi:namedview
     id="namedview100"
     pagecolor="#ffffff"
     bordercolor="#666666"
     borderopacity="1.0"
     inkscape:pageshadow="2"
     inkscape:pageopacity="0.0"
     inkscape:pagecheckerboard="0"
     inkscape:blackoutopacity="0.0"
     showgrid="false"
     inkscape:zoom="3.6751592"
     inkscape:cx="14.557192"
     inkscape:cy="88.839688"
     inkscape:window-width="2111"
     inkscape:window-height="895"
     inkscape:window-x="0"
     inkscape:window-y="25"
     inkscape:window-maximized="0"
     inkscape:current-layer="Layer_1" /><g
     id="g97"
     style="stroke:#ffffff;stroke-opacity:1"
     transform="matrix(0.88091615,0,0,0.88091615,17.79993,37.920435)"><path
       d="m 48.17,0.36 73.7,13.39 c 0.54,0.1 1,0.45 1,1 V 63.6 c 0,0.55 -0.46,0.91 -1,1 l -73.7,13.47 c -0.54,0.1 -1,-0.45 -1,-1 V 1.36 c 0,-0.55 0.46,-1.1 1,-1 z M 0.69,7.06 10.72,5.39 V 72.98 L 0.69,71.28 C 0.31,71.21 0,70.97 0,70.59 V 7.75 C 0,7.37 0.31,7.13 0.69,7.06 Z M 14.6,4.74 26.04,2.83 V 75.58 L 14.6,73.65 Z M 29.93,2.19 43.04,0.01 c 0.37,-0.06 0.69,0.31 0.69,0.69 v 77.1 c 0,0.38 -0.31,0.75 -0.69,0.69 L 29.93,76.26 V 2.45 Z m 89.41,16.01 v 42.05 h -1.3 V 18.2 Z M 57.63,9.83 V 69.89 H 53.74 V 8.63 Z m 10.65,0.99 V 68.3 H 64.71 V 10.36 Z m 9.53,1.54 V 66.69 H 74.57 V 11.75 Z m 8.5,1.33 V 65.52 H 83.39 V 13.01 Z m 7.84,1.26 v 49.13 h -2.6 V 14.41 Z m 7.23,0.91 V 62.97 H 99.11 V 15.34 Z m 6.48,1.18 v 44.92 h -1.95 V 16.43 Z m 6.04,1.02 v 42.97 h -1.62 V 17.31 Z"
       id="path95"
       style="stroke:#ffffff;stroke-opacity:1" /></g><ellipse
     style="fill:none;fill-opacity:0.117647;stroke:#ffffff;stroke-width:3;stroke-miterlimit:4;stroke-dasharray:none;stroke-opacity:1"
     id="path2757"
     cx="71.919014"
     cy="72.496216"
     rx="70.419014"
     ry="70.996216" /></svg>
