<svg xmlns="http://www.w3.org/2000/svg" fill="none" viewBox="100 100 824 824"><rect x="100" y="100" width="824" height="824" rx="184" fill="url(#a)"/><path fill-rule="evenodd" clip-rule="evenodd" d="M516.9 211.7a12 12 0 0 0-10.8 0L215.6 356.9a12 12 0 0 0-6.6 10.8v287.6a12 12 0 0 0 6.6 10.8l290.5 145.2a12 12 0 0 0 10.8 0l290.5-145.2c4-2 6.6-6.2 6.6-10.8V367.7a12 12 0 0 0-6.6-10.8L516.9 211.7Z" fill="url(#b)"/><g filter="url(#c)" shape-rendering="crispEdges"><path d="M506.1 211.7a12 12 0 0 1 10.8 0l290.5 145.2c4 2 6.6 6.2 6.6 10.8v287.6a12 12 0 0 1-6.6 10.8L516.9 811.3a12 12 0 0 1-10.8 0L215.6 666.1a12 12 0 0 1-6.6-10.8V367.7a12 12 0 0 1 6.6-10.8l290.5-145.2Z" fill="url(#d)" fill-opacity=".2"/><path d="M506.1 211.7a12 12 0 0 1 10.8 0l290.5 145.2c4 2 6.6 6.2 6.6 10.8v287.6a12 12 0 0 1-6.6 10.8L516.9 811.3a12 12 0 0 1-10.8 0L215.6 666.1a12 12 0 0 1-6.6-10.8V367.7a12 12 0 0 1 6.6-10.8l290.5-145.2Z" stroke="url(#e)" stroke-width="32" stroke-linecap="square" stroke-linejoin="round"/></g><g filter="url(#f)"><path d="M512.5 227 798 371v282.5l-287.5 142-285.5-142V371l287.5-144Z" fill="url(#g)" fill-opacity=".2"/></g><path d="M511 228 225 370.5 511 516l287-145.5L511 228Z" fill="url(#h)" fill-opacity=".3"/><path d="M297 585.2h428" stroke="url(#i)"/><g filter="url(#j)"><path fill-rule="evenodd" clip-rule="evenodd" d="M297 421a14 14 0 0 1 14-14h400.7a14 14 0 0 1 14 14v186.3a14 14 0 0 1-14 14H311a14 14 0 0 1-14-14V421Zm35.8 26.7a5 5 0 0 1 5-5h25.7a5 5 0 0 1 5 5V545a5 5 0 0 1-5 5h-25.7a5 5 0 0 1-5-5v-97.2Zm76.4-5a5 5 0 0 0-5 5V545a5 5 0 0 0 5 5H435a5 5 0 0 0 5-5v-97.2a5 5 0 0 0-5-5h-25.8Zm66.5 5a5 5 0 0 1 5-5h25.7a5 5 0 0 1 5 5V545a5 5 0 0 1-5 5h-25.7a5 5 0 0 1-5-5v-97.2Zm76.6-5.1a5 5 0 0 0-5 5v97.1a5 5 0 0 0 5 5H578a5 5 0 0 0 5-5v-97.1a5 5 0 0 0-5-5h-25.7Z" fill="url(#k)"/></g><path d="M297 585.6h428.7v23.7a12 12 0 0 1-12 12H309a12 12 0 0 1-12-12v-23.7Z" fill="#472EA8"/><defs><linearGradient id="a" x1="512" y1="100" x2="512" y2="924" gradientUnits="userSpaceOnUse"><stop stop-color="#2E114A"/><stop offset=".9" stop-color="#07051B"/></linearGradient><linearGradient id="b" x1="511.5" y1="210.4" x2="511.5" y2="812.6" gradientUnits="userSpaceOnUse"><stop stop-color="#2E114A"/><stop offset=".9" stop-color="#07051B"/></linearGradient><linearGradient id="d" x1="271.4" y1="814" x2="271.4" y2="209" gradientUnits="userSpaceOnUse"><stop stop-opacity=".7"/><stop offset="1" stop-color="#F1F1F1" stop-opacity=".9"/></linearGradient><linearGradient id="e" x1="172.1" y1="251.5" x2="814" y2="814" gradientUnits="userSpaceOnUse"><stop stop-color="#6AD2FA"/><stop offset=".5" stop-color="#7669FA"/><stop offset=".7" stop-color="#8850E4"/><stop offset="1" stop-color="#CE0EBB"/></linearGradient><linearGradient id="g" x1="284.3" y1="792" x2="284.3" y2="227" gradientUnits="userSpaceOnUse"><stop stop-opacity=".7"/><stop offset="1" stop-color="#F1F1F1" stop-opacity=".9"/></linearGradient><linearGradient id="h" x1="513.9" y1="230" x2="513.9" y2="395.1" gradientUnits="userSpaceOnUse"><stop stop-color="#621EA6" stop-opacity=".9"/><stop offset="1" stop-color="#CCCAD1" stop-opacity="0"/></linearGradient><linearGradient id="i" x1="512.5" y1="585.2" x2="512.5" y2="586.2" gradientUnits="userSpaceOnUse"><stop stop-opacity="0"/><stop offset=".2" stop-opacity=".4"/><stop offset=".6" stop-opacity="0"/><stop offset="1" stop-opacity="0"/></linearGradient><linearGradient id="k" x1="511.4" y1="407" x2="511.4" y2="621.3" gradientUnits="userSpaceOnUse"><stop stop-color="#E9E9E9"/><stop offset="1" stop-color="#A59ADE"/></linearGradient><filter id="c" x="189" y="194.4" width="645" height="642.2" filterUnits="userSpaceOnUse" color-interpolation-filters="sRGB"><feFlood flood-opacity="0" result="BackgroundImageFix"/><feColorMatrix in="SourceAlpha" values="0 0 0 0 0 0 0 0 0 0 0 0 0 0 0 0 0 0 127 0" result="hardAlpha"/><feOffset dy="4"/><feGaussianBlur stdDeviation="2"/><feComposite in2="hardAlpha" operator="out"/><feColorMatrix values="0 0 0 0 0 0 0 0 0 0 0 0 0 0 0 0 0 0 0.25 0"/><feBlend in2="BackgroundImageFix" result="effect1_dropShadow_1_2"/><feBlend in="SourceGraphic" in2="effect1_dropShadow_1_2" result="shape"/></filter><filter id="f" x="225" y="227" width="573" height="568.5" filterUnits="userSpaceOnUse" color-interpolation-filters="sRGB"><feFlood flood-opacity="0" result="BackgroundImageFix"/><feBlend in="SourceGraphic" in2="BackgroundImageFix" result="shape"/><feColorMatrix in="SourceAlpha" values="0 0 0 0 0 0 0 0 0 0 0 0 0 0 0 0 0 0 127 0" result="hardAlpha"/><feOffset/><feGaussianBlur stdDeviation="8"/><feComposite in2="hardAlpha" operator="arithmetic" k2="-1" k3="1"/><feColorMatrix values="0 0 0 0 0 0 0 0 0 0 0 0 0 0 0 0 0 0 1 0"/><feBlend in2="shape" result="effect1_innerShadow_1_2"/></filter><filter id="j" x="286.1" y="392" width="450.6" height="237.3" filterUnits="userSpaceOnUse" color-interpolation-filters="sRGB"><feFlood flood-opacity="0" result="BackgroundImageFix"/><feColorMatrix in="SourceAlpha" values="0 0 0 0 0 0 0 0 0 0 0 0 0 0 0 0 0 0 127 0" result="hardAlpha"/><feOffset dy="-4"/><feGaussianBlur stdDeviation="5.5"/><feComposite in2="hardAlpha" operator="out"/><feColorMatrix values="0 0 0 0 1 0 0 0 0 1 0 0 0 0 1 0 0 0 0.14 0"/><feBlend in2="BackgroundImageFix" result="effect1_dropShadow_1_2"/><feColorMatrix in="SourceAlpha" values="0 0 0 0 0 0 0 0 0 0 0 0 0 0 0 0 0 0 127 0" result="hardAlpha"/><feOffset dy="4"/><feGaussianBlur stdDeviation="2"/><feComposite in2="hardAlpha" operator="out"/><feColorMatrix values="0 0 0 0 0 0 0 0 0 0 0 0 0 0 0 0 0 0 0.25 0"/><feBlend in2="effect1_dropShadow_1_2" result="effect2_dropShadow_1_2"/><feBlend in="SourceGraphic" in2="effect2_dropShadow_1_2" result="shape"/></filter></defs></svg>
