<svg xmlns="http://www.w3.org/2000/svg" xmlns:xlink="http://www.w3.org/1999/xlink" width="1024" height="1024" fill="none" viewBox="0 0 645 642.2"><style>.B{color-interpolation-filters:sRGB}.C{flood-opacity:0}.D{fill-rule:evenodd}</style><path d="M327.9 17.3a12 12 0 0 0-10.8 0L26.6 162.5a12 12 0 0 0-6.6 10.7V461a12 12 0 0 0 6.6 10.8L317.1 617a12 12 0 0 0 10.8 0l290.5-145.2c4-2 6.6-6.2 6.6-10.8V173.3a12 12 0 0 0-6.6-10.8z" fill="url(#A)" class="D"/><g transform="translate(-189 -194.4)" filter="url(#H)" shape-rendering="crispEdges"><use xlink:href="#K" fill="url(#B)" fill-opacity=".2"/><use xlink:href="#K" stroke="url(#C)" stroke-linejoin="round" stroke-width="32"/></g><g transform="translate(-189 -194.4)" filter="url(#I)"><path d="M512.5 227 798 371v282.5l-287.5 142-285.5-142V371z" fill="url(#D)" fill-opacity=".2"/></g><path d="M322 33.6 36 176l286 145.5L609 176z" fill="url(#E)" fill-opacity=".3"/><path d="M108 390.8h428" stroke="url(#F)"/><g transform="translate(-189 -194.4)" filter="url(#J)" class="D"><path d="M297 421a14 14 0 0 1 14-14h400.7a14 14 0 0 1 14 14v186.3a14 14 0 0 1-14 14H311a14 14 0 0 1-14-14zm35.8 26.7a5 5 0 0 1 5-5h25.7a5 5 0 0 1 5 5V545a5 5 0 0 1-5 5h-25.7a5 5 0 0 1-5-5zm76.4-5a5 5 0 0 0-5 5V545a5 5 0 0 0 5 5H435a5 5 0 0 0 5-5v-97.2a5 5 0 0 0-5-5zm66.5 5a5 5 0 0 1 5-5h25.7a5 5 0 0 1 5 5V545a5 5 0 0 1-5 5h-25.7a5 5 0 0 1-5-5zm76.6-5.1a5 5 0 0 0-5 5v97.1a5 5 0 0 0 5 5H578a5 5 0 0 0 5-5v-97.1a5 5 0 0 0-5-5z" fill="url(#G)"/></g><path d="M108 391.2h428.7v23.7a12 12 0 0 1-12 12H120a12 12 0 0 1-12-12z" fill="#472ea8"/><defs><linearGradient id="A" x1="322.5" x2="322.5" y1="16" y2="618.2" xlink:href="#L"><stop stop-color="#2e114a" offset="0"/><stop stop-color="#07051b" offset=".9"/></linearGradient><linearGradient id="B" x1="271.4" x2="271.4" y1="814" y2="209" xlink:href="#L"><stop stop-opacity=".7" offset="0"/><stop stop-color="#f1f1f1" stop-opacity=".9" offset="1"/></linearGradient><linearGradient id="C" x1="172.1" x2="814" y1="251.5" y2="814" xlink:href="#L"><stop stop-color="#6ad2fa" offset="0"/><stop stop-color="#7669fa" offset=".5"/><stop stop-color="#8850e4" offset=".7"/><stop stop-color="#ce0ebb" offset="1"/></linearGradient><linearGradient id="D" x1="284.3" x2="284.3" y1="792" y2="227" xlink:href="#L"><stop stop-opacity=".7" offset="0"/><stop stop-color="#f1f1f1" stop-opacity=".9" offset="1"/></linearGradient><linearGradient id="E" x1="324.9" x2="324.9" y1="35.6" y2="200.7" xlink:href="#L"><stop stop-color="#621ea6" stop-opacity=".9" offset="0"/><stop stop-color="#cccad1" stop-opacity="0" offset="1"/></linearGradient><linearGradient id="F" x1="323.5" x2="323.5" y1="390.8" y2="391.8" xlink:href="#L"><stop stop-opacity="0" offset="0"/><stop stop-opacity=".4" offset=".2"/><stop stop-opacity="0" offset=".6"/></linearGradient><linearGradient id="G" x1="511.4" x2="511.4" y1="407" y2="621.3" xlink:href="#L"><stop stop-color="#e9e9e9" offset="0"/><stop stop-color="#a59ade" offset="1"/></linearGradient><linearGradient id="L" gradientUnits="userSpaceOnUse"/><filter id="H" x="189" y="194.4" width="645" height="642.2" filterUnits="userSpaceOnUse" class="B"><feFlood result="A" class="C"/><feColorMatrix in="SourceAlpha" result="B" values="0 0 0 0 0 0 0 0 0 0 0 0 0 0 0 0 0 0 127 0"/><feOffset dy="4"/><feGaussianBlur stdDeviation="2"/><feComposite in2="B" operator="out"/><feColorMatrix values="0 0 0 0 0 0 0 0 0 0 0 0 0 0 0 0 0 0 0.25 0"/><feBlend in2="A"/><feBlend in="SourceGraphic"/></filter><filter id="I" x="225" y="227" width="573" height="568.5" filterUnits="userSpaceOnUse" class="B"><feFlood class="C"/><feBlend in="SourceGraphic" result="B"/><feColorMatrix in="SourceAlpha" result="C" values="0 0 0 0 0 0 0 0 0 0 0 0 0 0 0 0 0 0 127 0"/><feOffset/><feGaussianBlur stdDeviation="8"/><feComposite in2="C" k2="-1" k3="1" operator="arithmetic"/><feColorMatrix values="0 0 0 0 0 0 0 0 0 0 0 0 0 0 0 0 0 0 1 0"/><feBlend in2="B"/></filter><filter id="J" x="286.1" y="392" width="450.6" height="237.3" filterUnits="userSpaceOnUse" class="B"><feFlood result="A" class="C"/><feColorMatrix in="SourceAlpha" result="B" values="0 0 0 0 0 0 0 0 0 0 0 0 0 0 0 0 0 0 127 0"/><feOffset dy="-4"/><feGaussianBlur stdDeviation="5.5"/><feComposite in2="B" operator="out"/><feColorMatrix values="0 0 0 0 1 0 0 0 0 1 0 0 0 0 1 0 0 0 0.14 0"/><feBlend in2="A" result="C"/><feColorMatrix in="SourceAlpha" result="B" values="0 0 0 0 0 0 0 0 0 0 0 0 0 0 0 0 0 0 127 0"/><feOffset dy="4"/><feGaussianBlur stdDeviation="2"/><feComposite in2="B" operator="out"/><feColorMatrix values="0 0 0 0 0 0 0 0 0 0 0 0 0 0 0 0 0 0 0.25 0"/><feBlend in2="C"/><feBlend in="SourceGraphic"/></filter><path id="K" d="M506.1 211.7a12 12 0 0 1 10.8 0l290.5 145.2c4 2 6.6 6.2 6.6 10.8v287.6a12 12 0 0 1-6.6 10.8L516.9 811.3a12 12 0 0 1-10.8 0L215.6 666.1a12 12 0 0 1-6.6-10.8V367.7a12 12 0 0 1 6.6-10.8z"/></defs></svg>