<svg fill="none" version="1.1" viewBox="0 0 16 16" xmlns="http://www.w3.org/2000/svg">
 <path d="m6.882 1.118c0.70381-0.3519 1.5322-0.3519 2.2361 0l5 2.5c0.847 0.42348 1.382 1.2891 1.382 2.2361v4.2918c0 0.9469-0.535 1.8126-1.382 2.2361l-5 2.5c-0.70381 0.3519-1.5322 0.3519-2.2361 0l-5-2.5c-0.84696-0.4235-1.382-1.2892-1.382-2.2361v-4.2918c0-0.94693 0.53501-1.8126 1.382-2.2361z" stroke="#000" style="stroke:#fff"/>
 <path d="m1.9282 10h12c0 0.5523-0.4477 1-1 1h-10c-0.55228 0-1-0.4477-1-1z" fill="#000" fill-opacity=".7"/>
 <path d="m2.9282 5c-0.55228 0-1 0.44772-1 1v4c0 0.5523 0.44772 1 1 1h10c0.5523 0 1-0.4477 1-1v-4c0-0.55228-0.4477-1-1-1zm0.5 1c-0.27614 0-0.5 0.22386-0.5 0.5v2c0 0.27614 0.22386 0.5 0.5 0.5 0.27615 0 0.5-0.22386 0.5-0.5v-2c0-0.27614-0.22385-0.5-0.5-0.5zm1.5 0.5c0-0.27614 0.22386-0.5 0.5-0.5 0.27615 0 0.5 0.22386 0.5 0.5v2c0 0.27614-0.22385 0.5-0.5 0.5-0.27614 0-0.5-0.22386-0.5-0.5z" clip-rule="evenodd" fill="#000" fill-opacity=".7" fill-rule="evenodd" style="fill-opacity:.7;fill:#fff"/>
</svg>
