<?xml version="1.0" encoding="UTF-8" standalone="no"?>
<svg
   width="16"
   height="16"
   viewBox="0 0 16 16"
   fill="none"
   version="1.1"
   id="svg188"
   sodipodi:docname="tray-icon-step4Template.svg"
   inkscape:version="1.2.2 (b0a8486541, 2022-12-01)"
   inkscape:export-filename="tray-icon-step3Template.png"
   inkscape:export-xdpi="96"
   inkscape:export-ydpi="96"
   xmlns:inkscape="http://www.inkscape.org/namespaces/inkscape"
   xmlns:sodipodi="http://sodipodi.sourceforge.net/DTD/sodipodi-0.dtd"
   xmlns="http://www.w3.org/2000/svg"
   xmlns:svg="http://www.w3.org/2000/svg">
  <defs
     id="defs192" />
  <sodipodi:namedview
     id="namedview190"
     pagecolor="#ffffff"
     bordercolor="#666666"
     borderopacity="1.0"
     inkscape:showpageshadow="2"
     inkscape:pageopacity="0.0"
     inkscape:pagecheckerboard="0"
     inkscape:deskcolor="#d1d1d1"
     showgrid="true"
     inkscape:zoom="6.546262"
     inkscape:cx="39.259046"
     inkscape:cy="9.7001923"
     inkscape:window-width="1920"
     inkscape:window-height="1131"
     inkscape:window-x="0"
     inkscape:window-y="0"
     inkscape:window-maximized="1"
     inkscape:current-layer="svg188">
    <inkscape:grid
       type="xygrid"
       id="grid652" />
  </sodipodi:namedview>
  <path
     id="path763"
     style="opacity:0.5;fill:#000000;stroke-width:0.538536"
     d="M 3.656966,4.9942691 C 3.293811,4.9942691 3,5.2888446 3,5.6529871 V 9.9942696 H 13.000001 V 5.6529871 c 0,-0.3641425 -0.293793,-0.658718 -0.656964,-0.658718 z m 0.618603,1.000782 h 0.46787 c 0.145947,0 0.265125,0.1195101 0.265125,0.2658324 v 2.4706803 c 0,0.1463247 -0.119178,0.2658334 -0.265125,0.2658334 h -0.46787 c -0.14595,0 -0.265125,-0.1195087 -0.265125,-0.2658334 V 6.2608835 C 4.010443,6.1145612 4.129619,5.9950511 4.275569,5.9950511 Z m 1.996241,0 h 0.467868 c 0.14595,0 0.265126,0.1195101 0.265126,0.2658324 v 2.4706803 c 0,0.1463247 -0.119176,0.2658334 -0.265126,0.2658334 H 6.27181 c -0.145951,0 -0.265126,-0.1195087 -0.265126,-0.2658334 V 6.2608835 c 0,-0.1463223 0.119175,-0.2658324 0.265126,-0.2658324 z m 1.996241,0 h 0.467866 c 0.145953,0 0.265129,0.1195101 0.265129,0.2658324 v 2.4706803 c 0,0.1463247 -0.119176,0.2658334 -0.265129,0.2658334 H 8.268051 c -0.145951,0 -0.265127,-0.1195087 -0.265127,-0.2658334 V 6.2608835 c 0,-0.1463223 0.119176,-0.2658324 0.265127,-0.2658324 z m 1.996238,0 h 0.467872 c 0.145949,0 0.265125,0.1195101 0.265125,0.2658324 v 2.4706803 c 0,0.1463247 -0.119176,0.2658334 -0.265125,0.2658334 h -0.467872 c -0.145949,0 -0.265125,-0.1195087 -0.265125,-0.2658334 V 6.2608835 c 0,-0.1463223 0.119176,-0.2658324 0.265125,-0.2658324 z"
     sodipodi:nodetypes="ssccsssssssssscsssssssscsssssssscsssssssscs" />
  <path
     d="m 3,9.9942691 h 10.000001 v 0.4265899 c 0,0.316713 -0.252334,0.57341 -0.563557,0.57341 H 3.563555 C 3.252313,10.994269 3,10.737572 3,10.420859 Z"
     fill="#472ea8"
     id="path765"
     style="fill:#000000;stroke-width:0.538536"
     sodipodi:nodetypes="ccssssc" />
  <path
     id="path767"
     style="color:#000000;fill:#000000;stroke-width:0.538536;stroke-linecap:square;stroke-linejoin:round;-inkscape-stroke:none;shape-rendering:crispEdges"
     d="M 7.939453,0.07421875 C 7.854563,0.07431046 7.771287,0.08126205 7.6875,0.09179687 7.67327,0.09429197 7.65871,0.09483617 7.64453,0.09765627 7.61288,0.10240047 7.58217,0.1126621 7.55078,0.11914064 7.418203,0.15256164 7.288312,0.19765834 7.164061,0.25976564 L 1.070311,3.3066406 c -0.241818,0.120913 -0.450896,0.2907967 -0.617187,0.4921875 -0.02622,0.03175 -0.04819,0.06628 -0.07227,0.099609 -0.03193,0.045726 -0.06554,0.090539 -0.09375,0.1386719 L 8.207031,0.08789062 C 8.117999,0.07867313 8.028272,0.0741228 7.939453,0.07421875 Z m 4.904297,2.17382815 -2.224609,1.109375 3.396484,1.6972656 v 0.015625 5.8437495 0.01563 l -6,3 -6,-3 v -0.01563 -3.2675776 l -2,0.9960937 v 2.3300779 0.01367 c 6.14e-4,0.0855 0.0077,0.170614 0.01953,0.253906 0.0869,0.614268 0.469,1.155367 1.033203,1.4375 l 6.095703,3.046875 c 0.26725,0.133587 0.558903,0.201172 0.851563,0.201172 0.29267,0 0.584314,-0.06759 0.851563,-0.201172 l 6.095703,-3.046875 c 0.564243,-0.282129 0.946316,-0.823244 1.033203,-1.4375 0.01178,-0.08329 0.01892,-0.168406 0.01953,-0.253906 v -0.01367 -5.9609372 c 0,-0.00458 3.3e-5,-0.00909 0,-0.013672 -0.0052,-0.7160633 -0.412027,-1.371017 -1.052734,-1.6914063 z" />
</svg>
