<?xml version="1.0" encoding="UTF-8" standalone="no"?>
<svg
   width="48"
   height="48"
   viewBox="0 0 48 48"
   fill="none"
   version="1.1"
   id="svg188"
   sodipodi:docname="tray-iconDark@3x.svg"
   inkscape:version="1.2.2 (b0a8486541, 2022-12-01)"
   xmlns:inkscape="http://www.inkscape.org/namespaces/inkscape"
   xmlns:sodipodi="http://sodipodi.sourceforge.net/DTD/sodipodi-0.dtd"
   xmlns="http://www.w3.org/2000/svg"
   xmlns:svg="http://www.w3.org/2000/svg">
  <defs
     id="defs192" />
  <sodipodi:namedview
     id="namedview190"
     pagecolor="#ffffff"
     bordercolor="#666666"
     borderopacity="1.0"
     inkscape:showpageshadow="2"
     inkscape:pageopacity="0.0"
     inkscape:pagecheckerboard="0"
     inkscape:deskcolor="#d1d1d1"
     showgrid="true"
     inkscape:zoom="4"
     inkscape:cx="15.5"
     inkscape:cy="22.625"
     inkscape:window-width="1920"
     inkscape:window-height="1131"
     inkscape:window-x="0"
     inkscape:window-y="0"
     inkscape:window-maximized="1"
     inkscape:current-layer="g5225">
    <inkscape:grid
       type="xygrid"
       id="grid652"
       originx="0"
       originy="0" />
  </sodipodi:namedview>
  <g
     id="g69794"
     transform="matrix(0.04705882,0,0,0.04705882,-18.420569,-1.1435129)"
     style="stroke-width:11.4439">
    <g
       id="g5225"
       transform="translate(0,-0.1217843)">
      <g
         id="g6519"
         transform="matrix(1.5333333,0,0,1.5336691,-220.0998,-24.480458)"
         style="stroke-width:7.4626">
        <g
           id="g5849"
           transform="translate(0,1.4999857)"
           style="stroke-width:7.4626">
          <path
             id="path730"
             style="opacity:1;fill:#ffffff;stroke-width:7.4626"
             d="m 546.85828,235.42153 c -15.43409,0 -27.92105,12.51945 -27.92105,27.9955 V 447.92146 H 943.93706 V 263.41703 c 0,-15.47605 -12.48615,-27.9955 -27.92104,-27.9955 z m 26.29063,42.53322 h 19.88443 c 6.20277,0 11.26781,5.07917 11.26781,11.29787 v 105.00387 c 0,6.21879 -5.06504,11.29791 -11.26781,11.29791 h -19.88443 c -6.2029,0 -11.26784,-5.07912 -11.26784,-11.29791 V 289.25262 c -2e-5,-6.2187 5.06494,-11.29787 11.26784,-11.29787 z m 84.84018,0 h 19.88441 c 6.20283,0 11.26783,5.07917 11.26783,11.29787 v 105.00387 c 0,6.21879 -5.065,11.29791 -11.26783,11.29791 h -19.88441 c -6.2029,0 -11.26784,-5.07912 -11.26784,-11.29791 V 289.25262 c -2e-5,-6.2187 5.06494,-11.29787 11.26784,-11.29787 z m 84.84019,0 h 19.88439 c 6.20284,0 11.26784,5.07917 11.26784,11.29787 v 105.00387 c 0,6.21879 -5.065,11.29791 -11.26784,11.29791 h -19.88439 c -6.20289,0 -11.26785,-5.07912 -11.26785,-11.29791 V 289.25262 c -2e-5,-6.2187 5.06496,-11.29787 11.26785,-11.29787 z m 84.84016,0 h 19.88443 c 6.2028,0 11.26783,5.07917 11.26783,11.29787 v 105.00387 c 0,6.21879 -5.06503,11.29791 -11.26783,11.29791 h -19.88443 c -6.2029,0 -11.26783,-5.07912 -11.26783,-11.29791 V 289.25262 c -2e-5,-6.2187 5.06493,-11.29787 11.26783,-11.29787 z"
             sodipodi:nodetypes="ssccsssssssssscsssssssscsssssssscsssssssscs" />
          <path
             d="m 518.93724,469.17148 h 424.99981 v 18.13005 c 0,13.46032 -10.72409,24.36993 -23.95107,24.36993 H 542.88831 c -13.22777,0 -23.95107,-10.90961 -23.95107,-24.36993 z"
             fill="#472ea8"
             id="path728"
             style="opacity:0.5;fill:#ffffff;stroke-width:7.4626"
             sodipodi:nodetypes="ccssssc" />
        </g>
        <path
           style="color:#000000;fill:none;stroke:#ffffff;stroke-width:41.5715;stroke-linecap:square;stroke-linejoin:round;stroke-dasharray:none;shape-rendering:crispEdges"
           d="M 731.43716,55.716922 1043.2601,210.92366 V 518.76987 L 731.43716,673.12599 419.61422,518.76987 V 210.92366 Z"
           id="path5949" />
      </g>
    </g>
  </g>
</svg>
