<?xml version="1.0" encoding="UTF-8" standalone="no"?>
<svg
   width="16.000008"
   height="15.881795"
   viewBox="0 0 16.000008 15.881795"
   fill="none"
   version="1.1"
   id="svg188"
   sodipodi:docname="tray-iconTemplate.svg"
   inkscape:version="1.2.2 (b0a8486541, 2022-12-01)"
   inkscape:export-filename="tray-icon-step4Template.svg"
   inkscape:export-xdpi="96"
   inkscape:export-ydpi="96"
   xmlns:inkscape="http://www.inkscape.org/namespaces/inkscape"
   xmlns:sodipodi="http://sodipodi.sourceforge.net/DTD/sodipodi-0.dtd"
   xmlns="http://www.w3.org/2000/svg"
   xmlns:svg="http://www.w3.org/2000/svg">
  <defs
     id="defs192">
    <filter
       inkscape:collect="always"
       style="color-interpolation-filters:sRGB"
       id="filter1022"
       x="-0.42476565"
       y="-0.42476565"
       width="1.8495313"
       height="1.8495313">
      <feGaussianBlur
         inkscape:collect="always"
         stdDeviation="13.924228"
         id="feGaussianBlur1024" />
    </filter>
    <clipPath
       clipPathUnits="userSpaceOnUse"
       id="clipPath2608">
      <path
         id="path2610"
         style="opacity:0.5;fill:#000000;stroke-width:11.4439"
         d="m 372.69822,165.28489 c -2.70937,0 -4.93098,2.02616 -4.93095,4.47117 v 41.28492 c 0,2.44506 2.22158,4.43855 4.93095,4.43855 h 8.70169 c 2.7093,0 4.8947,-1.99349 4.8947,-4.43855 v -41.28492 c 0,-2.44501 -2.1854,-4.47117 -4.8947,-4.47117 z m 37.05472,0 c -2.70937,0 -4.93098,2.02616 -4.93097,4.47117 v 41.28492 c 0,2.44506 2.2216,4.43855 4.93097,4.43855 h 8.70168 c 2.70935,0 4.89471,-1.99349 4.89471,-4.43855 v -41.28492 c 0,-2.44501 -2.18536,-4.47117 -4.89471,-4.47117 z m 37.0547,0 c -2.70937,0 -4.93097,2.02616 -4.93096,4.47117 v 41.28492 c 0,2.44506 2.22159,4.43855 4.93096,4.43855 h 8.70169 c 2.70934,0 4.93096,-1.99349 4.93096,-4.43855 v -41.28492 c 0,-2.44501 -2.22162,-4.47117 -4.93096,-4.47117 z m 37.05471,0 c -2.70936,0 -4.89471,2.02616 -4.89471,4.47117 v 41.28492 c 0,2.44506 2.18535,4.43855 4.89471,4.43855 h 8.70169 c 2.70932,0 4.93096,-1.99349 4.93096,-4.43855 v -41.28492 c 0,-2.44501 -2.22164,-4.47117 -4.93096,-4.47117 z" />
    </clipPath>
  </defs>
  <sodipodi:namedview
     id="namedview190"
     pagecolor="#ffffff"
     bordercolor="#666666"
     borderopacity="1.0"
     inkscape:showpageshadow="2"
     inkscape:pageopacity="0.0"
     inkscape:pagecheckerboard="0"
     inkscape:deskcolor="#d1d1d1"
     showgrid="false"
     inkscape:zoom="37.03125"
     inkscape:cx="7.1021097"
     inkscape:cy="12.340928"
     inkscape:window-width="2560"
     inkscape:window-height="1371"
     inkscape:window-x="0"
     inkscape:window-y="0"
     inkscape:window-maximized="1"
     inkscape:current-layer="g5225">
    <inkscape:grid
       type="xygrid"
       id="grid652" />
  </sodipodi:namedview>
  <g
     id="g69794"
     transform="matrix(0.04705882,0,0,0.04705882,-18.420587,-1.2026306)"
     style="stroke-width:11.4439">
    <g
       id="g5225"
       transform="translate(0,-0.1217843)">
      <circle
         style="mix-blend-mode:normal;fill:#000000;stroke:none;stroke-width:201.554;stroke-linecap:round;stroke-linejoin:bevel;stroke-miterlimit:4.4;filter:url(#filter1022)"
         id="path360"
         cx="487.28406"
         cy="188.45218"
         r="39.337158"
         transform="matrix(1.1447127,0,0,1.2717098,55.656794,-58.397477)"
         clip-path="url(#clipPath2608)" />
      <path
         id="path730"
         style="opacity:0.5;fill:#000000;stroke-width:11.4439"
         d="m 469.14766,130.54966 c -7.71705,0 -13.96053,6.25973 -13.96053,13.99776 v 92.25226 h 212.50002 v -92.25226 c 0,-7.73803 -6.24308,-13.99776 -13.96053,-13.99776 z m 13.14532,21.26662 h 9.94222 c 3.10139,0 5.63391,2.53959 5.63391,5.64894 v 52.50196 c 0,3.1094 -2.53252,5.64896 -5.63391,5.64896 h -9.94222 c -3.10145,0 -5.63392,-2.53956 -5.63392,-5.64896 v -52.50196 c -1e-5,-3.10935 2.53247,-5.64894 5.63392,-5.64894 z m 42.42011,0 h 9.94221 c 3.10142,0 5.63392,2.53959 5.63392,5.64894 v 52.50196 c 0,3.1094 -2.5325,5.64896 -5.63392,5.64896 h -9.94221 c -3.10145,0 -5.63392,-2.53956 -5.63392,-5.64896 v -52.50196 c -10e-6,-3.10935 2.53247,-5.64894 5.63392,-5.64894 z m 42.42012,0 h 9.9422 c 3.10142,0 5.63392,2.53959 5.63392,5.64894 v 52.50196 c 0,3.1094 -2.5325,5.64896 -5.63392,5.64896 h -9.9422 c -3.10145,0 -5.63393,-2.53956 -5.63393,-5.64896 v -52.50196 c -10e-6,-3.10935 2.53248,-5.64894 5.63393,-5.64894 z m 42.4201,0 h 9.94222 c 3.1014,0 5.63392,2.53959 5.63392,5.64894 v 52.50196 c 0,3.1094 -2.53252,5.64896 -5.63392,5.64896 h -9.94222 c -3.10145,0 -5.63392,-2.53956 -5.63392,-5.64896 v -52.50196 c -10e-6,-3.10935 2.53247,-5.64894 5.63392,-5.64894 z"
         sodipodi:nodetypes="ssccsssssssssscsssssssscsssssssscsssssssscs" />
      <path
         d="m 455.18713,236.79967 h 212.50001 v 9.06503 c 0,6.73016 -5.36205,12.18497 -11.97554,12.18497 H 467.16267 c -6.61389,0 -11.97554,-5.45481 -11.97554,-12.18497 z"
         fill="#472ea8"
         id="path728"
         style="fill:#000000;stroke-width:11.4439"
         sodipodi:nodetypes="ccssssc" />
      <path
         style="color:#000000;fill:#000000;stroke-linecap:square;stroke-linejoin:round;-inkscape-stroke:none;shape-rendering:crispEdges"
         d="m 561.4375,25.677734 c -6.21923,0 -12.4284,1.436762 -18.10742,4.275391 a 21.252125,21.252125 0 0 0 -0.002,0.002 L 413.82617,94.697266 a 21.252125,21.252125 0 0 0 -0.002,0 C 400.12108,101.54901 391.4375,115.58623 391.4375,130.91602 v 126.97851 c 0,15.32963 8.62687,29.37584 22.38672,36.25586 a 21.252125,21.252125 0 0 0 0.002,0 l 129.50195,64.74219 a 21.252125,21.252125 0 0 0 0.002,0.002 c 11.39495,5.69502 24.81989,5.69502 36.21484,0 a 21.252125,21.252125 0 0 0 0.002,-0.002 l 129.50196,-64.74219 a 21.252125,21.252125 0 0 0 0.002,-0.002 c 13.7584,-6.88012 22.38672,-20.92333 22.38672,-36.25391 V 130.91602 c 0,-15.33033 -8.68465,-29.36694 -22.38672,-36.218754 a 21.252125,21.252125 0 0 0 -0.002,0 L 579.54687,29.955078 a 21.252125,21.252125 0 0 0 -0.002,-0.002 c -5.67915,-2.838738 -11.88819,-4.275391 -18.10742,-4.275391 z m 0,42.738282 127.5,63.742184 v 124.53125 l -127.5,63.74219 -127.5,-63.74219 V 132.1582 Z"
         id="path5436" />
    </g>
  </g>
</svg>
