<?xml version="1.0" encoding="UTF-8" standalone="no"?>
<svg
   width="16"
   height="16"
   viewBox="0 0 16 16"
   fill="none"
   version="1.1"
   id="svg188"
   sodipodi:docname="tray-icon-step2Template.svg"
   inkscape:version="1.2.2 (b0a8486541, 2022-12-01)"
   inkscape:export-filename="tray-icon-step2Template@2x.png"
   inkscape:export-xdpi="192"
   inkscape:export-ydpi="192"
   xmlns:inkscape="http://www.inkscape.org/namespaces/inkscape"
   xmlns:sodipodi="http://sodipodi.sourceforge.net/DTD/sodipodi-0.dtd"
   xmlns="http://www.w3.org/2000/svg"
   xmlns:svg="http://www.w3.org/2000/svg">
  <defs
     id="defs192" />
  <sodipodi:namedview
     id="namedview190"
     pagecolor="#ffffff"
     bordercolor="#666666"
     borderopacity="1.0"
     inkscape:showpageshadow="2"
     inkscape:pageopacity="0.0"
     inkscape:pagecheckerboard="0"
     inkscape:deskcolor="#d1d1d1"
     showgrid="true"
     inkscape:zoom="6.546262"
     inkscape:cx="39.259046"
     inkscape:cy="9.7001923"
     inkscape:window-width="1920"
     inkscape:window-height="1131"
     inkscape:window-x="0"
     inkscape:window-y="0"
     inkscape:window-maximized="1"
     inkscape:current-layer="svg188">
    <inkscape:grid
       type="xygrid"
       id="grid652" />
  </sodipodi:namedview>
  <path
     id="path694"
     style="opacity:0.5;fill:#000000;stroke-width:0.538536"
     d="M 3.656966,4.9942691 C 3.293811,4.9942691 3,5.2888446 3,5.6529871 V 9.9942696 H 13 V 5.6529871 c 0,-0.3641425 -0.293792,-0.658718 -0.656966,-0.658718 z m 0.618604,1.000782 h 0.467869 c 0.145947,0 0.265125,0.1195101 0.265125,0.2658324 v 2.4706803 c 0,0.1463247 -0.119178,0.2658334 -0.265125,0.2658334 H 4.27557 c -0.145951,0 -0.265126,-0.1195087 -0.265126,-0.2658334 V 6.2608835 C 4.010443,6.1145612 4.129619,5.9950511 4.27557,5.9950511 Z m 1.99624,0 h 0.467869 c 0.145949,0 0.265125,0.1195101 0.265125,0.2658324 v 2.4706803 c 0,0.1463247 -0.119176,0.2658334 -0.265125,0.2658334 H 6.27181 c -0.145951,0 -0.265126,-0.1195087 -0.265126,-0.2658334 V 6.2608835 c 0,-0.1463223 0.119175,-0.2658324 0.265126,-0.2658324 z"
     sodipodi:nodetypes="ssccsssssssssscsssssssscs" />
  <path
     d="m 3,9.9942691 h 10 v 0.4265899 c 0,0.316713 -0.252332,0.57341 -0.563555,0.57341 H 3.563555 C 3.252313,10.994269 3,10.737572 3,10.420859 Z"
     fill="#472ea8"
     id="path696"
     style="fill:#000000;stroke-width:0.538536"
     sodipodi:nodetypes="ccssssc" />
  <path
     id="path698"
     style="color:#000000;fill:#000000;stroke-width:0.538536;stroke-linecap:square;stroke-linejoin:round;-inkscape-stroke:none;shape-rendering:crispEdges"
     d="m 7.986328,0.064453 c -0.07317,0 -0.146024,0.003293 -0.21875,0.011719 C 7.694848,0.084598 7.622301,0.096481 7.550781,0.113281 7.479261,0.130082 7.407439,0.152611 7.337891,0.177734 7.268341,0.202858 7.201578,0.232229 7.134766,0.265625 L 1.039062,3.310547 C 0.958452,3.350851 0.881482,3.396936 0.808594,3.447266 0.735964,3.497467 0.667717,3.554246 0.603516,3.613281 0.539016,3.672553 0.477306,3.735604 0.421875,3.802734 0.366445,3.869865 0.317176,3.939766 0.271484,4.013672 c -0.02178,0.03527 -0.03915,0.072748 -0.05859,0.109375 -0.02144,0.040296 -0.04593,0.079299 -0.06445,0.121094 -2.34e-4,5.29e-4 2.33e-4,0.00142 0,0.00195 -0.03496,0.079073 -0.06387,0.160526 -0.08789,0.24414 -0.01907,0.066365 -0.03312,0.134499 -0.04492,0.203125 -0.0032,0.01845 -0.0091,0.036099 -0.01172,0.054688 -9e-5,6.36e-4 9e-5,0.00132 0,0.00195 -0.01226,0.087116 -0.01758,0.176105 -0.01758,0.265625 v 0.00195 2.703125 l 2,-0.998047 V 5.074219 l 6,-3 L 9.64649,2.904297 11.884772,1.787109 8.837897,0.265625 C 8.719619,0.206507 8.596622,0.160087 8.470703,0.126953 8.382774,0.103779 8.294834,0.086531 8.205078,0.076172 8.132353,0.067746 8.059496,0.064453 7.986328,0.064453 Z m 4.458984,2.003906 -2.240234,1.115235 0.707031,0.353515 2.238282,-1.117187 z m 1.824219,0.91211 -2.240234,1.115234 0.710937,0.355469 2.22461,-1.109375 c -0.01391,-0.0074 -0.01906,-0.02418 -0.0332,-0.03125 z m 1.716797,3.203125 -2,0.998047 v 0.708984 l 2,-0.996094 z m -14,1.097656 -2,0.998047 v 0.705078 l 2,-0.996094 z m 0,1.822266 -2,0.996093 v 0.708985 l 2,-0.996094 z m 13.876953,2.322265 -8.683593,4.328125 c 0.19172,0.09 0.39366,0.153979 0.599609,0.179688 0.06865,0.0086 0.137708,0.01172 0.207031,0.01172 0.291998,0 0.583446,-0.06717 0.851563,-0.201172 l 6.09375,-3.046875 c 0.06253,-0.03127 0.121806,-0.06816 0.179687,-0.105469 4.3e-4,-2.92e-4 0.0015,2.92e-4 0.002,0 0.395869,-0.269329 0.634424,-0.698793 0.75,-1.166016 z m -11.644531,0.625 -2.240234,1.115235 0.71289,0.357422 2.238282,-1.117188 z" />
</svg>
