<?xml version="1.0" encoding="UTF-8" standalone="no"?>
<svg
   width="16"
   height="16"
   viewBox="0 0 16 16"
   fill="none"
   version="1.1"
   id="svg188"
   xmlns:xlink="http://www.w3.org/1999/xlink"
   xmlns="http://www.w3.org/2000/svg"
   xmlns:svg="http://www.w3.org/2000/svg">
  <defs
     id="defs192">
    <linearGradient
       id="linearGradient4260">
      <stop
         style="stop-color:#000000;stop-opacity:1;"
         offset="0.07846355"
         id="stop4254" />
      <stop
         style="stop-color:#000000;stop-opacity:0;"
         offset="0.19679955"
         id="stop4256" />
      <stop
         style="stop-color:#000000;stop-opacity:1;"
         offset="1"
         id="stop4258" />
    </linearGradient>
    <linearGradient
       id="linearGradient4248">
      <stop
         style="stop-color:#000000;stop-opacity:1;"
         offset="0"
         id="stop4242" />
      <stop
         style="stop-color:#000000;stop-opacity:0;"
         offset="0.2536031"
         id="stop4244" />
      <stop
         style="stop-color:#000000;stop-opacity:1;"
         offset="1"
         id="stop4246" />
    </linearGradient>
    <linearGradient
       id="linearGradient4236">
      <stop
         style="stop-color:#000000;stop-opacity:1;"
         offset="0"
         id="stop4230" />
      <stop
         style="stop-color:#000000;stop-opacity:0;"
         offset="0.51477021"
         id="stop4232" />
      <stop
         style="stop-color:#000000;stop-opacity:1;"
         offset="1"
         id="stop4234" />
    </linearGradient>
    <linearGradient
       id="linearGradient4124">
      <stop
         style="stop-color:#000000;stop-opacity:1;"
         offset="0"
         id="stop4219" />
      <stop
         style="stop-color:#000000;stop-opacity:0;"
         offset="0.89609176"
         id="stop4224" />
      <stop
         style="stop-color:#000000;stop-opacity:1;"
         offset="1"
         id="stop4221" />
    </linearGradient>
    <linearGradient
       xlink:href="#linearGradient4236"
       id="linearGradient4228"
       gradientUnits="userSpaceOnUse"
       x1="30.508377"
       y1="-0.92686218"
       x2="36.719196"
       y2="11.71076"
       spreadMethod="pad"
       gradientTransform="translate(-20)" />
  </defs>
  <path
     id="path694"
     style="opacity:0.5;fill:#000000;stroke-width:0.538536"
     d="M 3.656966,4.9942691 C 3.293811,4.9942691 3,5.2888446 3,5.6529871 V 9.9942696 H 13 V 5.6529871 c 0,-0.3641425 -0.293792,-0.658718 -0.656966,-0.658718 z m 0.618604,1.000782 h 0.467869 c 0.145947,0 0.265125,0.1195101 0.265125,0.2658324 v 2.4706803 c 0,0.1463247 -0.119178,0.2658334 -0.265125,0.2658334 H 4.27557 c -0.145951,0 -0.265126,-0.1195087 -0.265126,-0.2658334 V 6.2608835 C 4.010443,6.1145612 4.129619,5.9950511 4.27557,5.9950511 Z m 1.99624,0 h 0.467869 c 0.145949,0 0.265125,0.1195101 0.265125,0.2658324 v 2.4706803 c 0,0.1463247 -0.119176,0.2658334 -0.265125,0.2658334 H 6.27181 c -0.145951,0 -0.265126,-0.1195087 -0.265126,-0.2658334 V 6.2608835 c 0,-0.1463223 0.119175,-0.2658324 0.265126,-0.2658324 z" />
  <path
     d="m 3,9.9942691 h 10 v 0.4265899 c 0,0.316713 -0.252332,0.57341 -0.563555,0.57341 H 3.563555 C 3.252313,10.994269 3,10.737572 3,10.420859 Z"
     fill="#472ea8"
     id="path696"
     style="fill:#000000;stroke-width:0.538536" />
  <path
     style="color:#000000;fill:url(#linearGradient4228);fill-opacity:1;stroke-width:0.538536;stroke-linecap:square;stroke-linejoin:round;-inkscape-stroke:none;shape-rendering:crispEdges"
     d="m 8.000017,0.05911996 c -0.292669,0 -0.584866,0.06761233 -0.852114,0.20119486 a 1.0000999,1.0000999 0 0 0 -9.4e-5,9.412e-5 L 1.053602,3.3070977 a 1.0000999,1.0000999 0 0 0 -9.4e-5,0 C 0.408657,3.6295327 1.8e-5,4.2901077 1.8e-5,5.0115095 v 5.9754585 c 0,0.721395 0.40597,1.382393 1.053493,1.706158 a 1.0000999,1.0000999 0 0 0 9.4e-5,0 l 6.094209,3.046691 a 1.0000999,1.0000999 0 0 0 9.4e-5,9.5e-5 c 0.536233,0.268 1.167994,0.268 1.704227,0 a 1.0000999,1.0000999 0 0 0 9.4e-5,-9.5e-5 l 6.09421,-3.046691 a 1.0000999,1.0000999 0 0 0 9.4e-5,-9.4e-5 c 0.647454,-0.32377 1.053493,-0.984627 1.053493,-1.706066 V 5.0115095 c 0,-0.7214272 -0.40869,-1.3819735 -1.053493,-1.7044118 a 1.0000999,1.0000999 0 0 0 -9.4e-5,0 L 8.852223,0.26040672 a 1.0000999,1.0000999 0 0 0 -9.4e-5,-9.411e-5 C 8.584875,0.12672495 8.292684,0.05911775 8.000015,0.05911775 Z m 0,2.01121314 6,2.9996319 v 5.860294 l -6,2.999632 -5.999999,-2.999632 V 5.069965 Z"
     id="path4226" />
</svg>
