<?xml version="1.0" encoding="UTF-8" standalone="no"?>
<svg
   width="16"
   height="16"
   viewBox="0 0 16 16"
   fill="none"
   version="1.1"
   id="svg188"
   sodipodi:docname="tray-icon-step1Template.svg"
   inkscape:version="1.2.2 (b0a8486541, 2022-12-01)"
   inkscape:export-filename="tray-icon-step1Template.png"
   inkscape:export-xdpi="96"
   inkscape:export-ydpi="96"
   xmlns:inkscape="http://www.inkscape.org/namespaces/inkscape"
   xmlns:sodipodi="http://sodipodi.sourceforge.net/DTD/sodipodi-0.dtd"
   xmlns="http://www.w3.org/2000/svg"
   xmlns:svg="http://www.w3.org/2000/svg">
  <defs
     id="defs192" />
  <sodipodi:namedview
     id="namedview190"
     pagecolor="#ffffff"
     bordercolor="#666666"
     borderopacity="1.0"
     inkscape:showpageshadow="2"
     inkscape:pageopacity="0.0"
     inkscape:pagecheckerboard="0"
     inkscape:deskcolor="#d1d1d1"
     showgrid="true"
     inkscape:zoom="6.546262"
     inkscape:cx="39.259046"
     inkscape:cy="9.7001923"
     inkscape:window-width="1920"
     inkscape:window-height="1131"
     inkscape:window-x="0"
     inkscape:window-y="0"
     inkscape:window-maximized="1"
     inkscape:current-layer="svg188">
    <inkscape:grid
       type="xygrid"
       id="grid652" />
  </sodipodi:namedview>
  <path
     id="path684"
     style="opacity:0.5;fill:#000000;stroke-width:0.538536"
     d="M 3.656966,4.9942691 C 3.293811,4.9942691 3,5.2888446 3,5.6529871 V 9.9942696 H 13 V 5.6529871 c 0,-0.3641425 -0.293792,-0.658718 -0.656966,-0.658718 z m 0.618604,1.000782 h 0.467869 c 0.145947,0 0.265125,0.1195101 0.265125,0.2658324 v 2.4706803 c 0,0.1463247 -0.119178,0.2658334 -0.265125,0.2658334 H 4.27557 c -0.145951,0 -0.265126,-0.1195087 -0.265126,-0.2658334 V 6.2608835 C 4.010443,6.1145612 4.129619,5.9950511 4.27557,5.9950511 Z"
     sodipodi:nodetypes="ssccsssssssssscs" />
  <path
     d="m 3,9.9942691 h 10 v 0.4265899 c 0,0.316713 -0.252332,0.57341 -0.563555,0.57341 H 3.563555 C 3.252313,10.994269 3,10.737572 3,10.420859 Z"
     fill="#472ea8"
     id="path686"
     style="fill:#000000;stroke-width:0.538536"
     sodipodi:nodetypes="ccssssc" />
  <path
     id="path688"
     style="color:#000000;fill:#000000;stroke-width:0.538536;stroke-linecap:square;stroke-linejoin:round;-inkscape-stroke:none;shape-rendering:crispEdges"
     d="m 8.015625,0.056641 c -0.146334,0 -0.292508,0.01718 -0.435547,0.050781 -0.143039,0.0336 -0.282392,0.083598 -0.416016,0.15039 a 1.0000999,1.0000999 0 0 0 0,0.001954 L 1.068359,3.304688 c -0.16206,0.081032 -0.308014,0.18339 -0.4375,0.302734 -0.128131,0.118095 -0.239175,0.253356 -0.330078,0.40039 -4.75e-4,7.7e-4 -0.0015,0.00118 -0.002,0.00195 -0.04513,0.073219 -0.08422,0.149724 -0.11914,0.228515 -0.02277,0.051461 -0.0404,0.104745 -0.05859,0.158203 -0.01005,0.029442 -0.02264,0.057909 -0.03125,0.087891 -1.7e-4,5.93e-4 1.69e-4,0.00136 0,0.00195 -0.02393,0.083626 -0.04235,0.168763 -0.05469,0.25586 -9e-5,6.36e-4 9e-5,0.00132 0,0.00195 -0.01225,0.087117 -0.01953,0.176104 -0.01953,0.265625 v 0.00195 5.974609 c 0,0.09017 0.0072,0.177879 0.01953,0.265625 9e-5,6.37e-4 -9e-5,0.0013 0,0.002 0.01236,0.08709 0.03077,0.174182 0.05469,0.257813 0.06233,0.217346 0.166266,0.418622 0.298828,0.599609 0.02131,0.02907 0.03954,0.06003 0.0625,0.08789 0.02713,0.03296 0.05854,0.06262 0.08789,0.09375 0.03088,0.03275 0.0605,0.06707 0.09375,0.09766 0.128846,0.118329 0.274136,0.220075 0.435547,0.300781 L 5.0625,14.6875 7.302734,13.572266 2.015625,10.927734 V 5.068359 l 6,-3 6,3 v 5.15625 l 2,-0.996093 V 5.011719 5.009766 c 0,-0.089524 -0.0073,-0.178507 -0.01953,-0.265625 -9e-5,-6.37e-4 9e-5,-0.00132 0,-0.00195 -0.01234,-0.087099 -0.03075,-0.172234 -0.05469,-0.25586 -1.69e-4,-5.93e-4 1.7e-4,-0.00136 0,-0.00195 -0.02396,-0.083402 -0.05305,-0.165255 -0.08789,-0.244141 -3.56e-4,-8.07e-4 -0.0016,-0.00115 -0.002,-0.00195 -0.03492,-0.078791 -0.07401,-0.155297 -0.11914,-0.228515 -4.74e-4,-7.71e-4 -0.0015,-0.00118 -0.002,-0.00195 -0.09091,-0.147032 -0.201949,-0.282297 -0.330078,-0.40039 -6.68e-4,-6.15e-4 -0.0013,-0.00134 -0.002,-0.00195 C 15.269448,3.486928 15.124091,3.385297 14.962891,3.304688 L 8.867188,0.259766 a 1.0000999,1.0000999 0 0 0 0,-0.001954 C 8.733561,0.191019 8.59421,0.141022 8.451172,0.107422 8.308134,0.073822 8.16196,0.056641 8.015625,0.056641 Z m 8,9.730468 -2,0.998047 v 0.142578 l -6,3 -0.152344,-0.07617 -2.240234,1.117187 0.707031,0.351563 9.685547,-4.828125 z m -0.207031,1.925782 -8.257813,4.117187 c 0.155464,0.04001 0.305118,0.109375 0.464844,0.109375 0.291998,0 0.583446,-0.06717 0.851563,-0.201172 l 6.095703,-3.046875 c 0.05898,-0.02949 0.11312,-0.06473 0.167968,-0.09961 0.315237,-0.213078 0.528582,-0.529655 0.677735,-0.878906 z" />
</svg>
