<?xml version="1.0" encoding="UTF-8" standalone="no"?>
<svg
   width="16"
   height="16"
   viewBox="0 0 16 16"
   fill="none"
   version="1.1"
   id="svg188"
   xmlns="http://www.w3.org/2000/svg"
   xmlns:svg="http://www.w3.org/2000/svg">
  <defs
     id="defs192">
    <linearGradient
       id="linearGradient4260">
      <stop
         style="stop-color:#000000;stop-opacity:1;"
         offset="0.07846355"
         id="stop4254" />
      <stop
         style="stop-color:#000000;stop-opacity:0;"
         offset="0.19679955"
         id="stop4256" />
      <stop
         style="stop-color:#000000;stop-opacity:1;"
         offset="1"
         id="stop4258" />
    </linearGradient>
    <linearGradient
       id="linearGradient4248">
      <stop
         style="stop-color:#000000;stop-opacity:1;"
         offset="0"
         id="stop4242" />
      <stop
         style="stop-color:#000000;stop-opacity:0;"
         offset="0.2536031"
         id="stop4244" />
      <stop
         style="stop-color:#000000;stop-opacity:1;"
         offset="1"
         id="stop4246" />
    </linearGradient>
    <linearGradient
       id="linearGradient4236">
      <stop
         style="stop-color:#000000;stop-opacity:1;"
         offset="0"
         id="stop4230" />
      <stop
         style="stop-color:#000000;stop-opacity:0;"
         offset="0.51477021"
         id="stop4232" />
      <stop
         style="stop-color:#000000;stop-opacity:1;"
         offset="1"
         id="stop4234" />
    </linearGradient>
    <linearGradient
       id="linearGradient4124">
      <stop
         style="stop-color:#000000;stop-opacity:1;"
         offset="0"
         id="stop4219" />
      <stop
         style="stop-color:#000000;stop-opacity:0;"
         offset="0.89609176"
         id="stop4224" />
      <stop
         style="stop-color:#000000;stop-opacity:1;"
         offset="1"
         id="stop4221" />
    </linearGradient>
  </defs>
  <path
     id="path730"
     style="opacity:0.5;fill:#000000;stroke-width:0.538536"
     d="m 3.6569663,4.9942691 c -0.3631553,0 -0.6569661,0.2945755 -0.6569661,0.658718 V 9.9942696 H 13 V 5.6529871 c 0,-0.3641425 -0.293792,-0.658718 -0.656966,-0.658718 z" />
  <path
     d="M 3.0000002,9.9942691 H 13 v 0.4265899 c 0,0.316713 -0.252332,0.57341 -0.563555,0.57341 h -8.87289 c -0.3112419,0 -0.5635548,-0.256697 -0.5635548,-0.57341 z"
     fill="#472ea8"
     id="path728"
     style="fill:#000000;stroke-width:0.538536" />
  <path
     style="color:#000000;fill:#000000;stroke-width:0.538536;stroke-linecap:square;stroke-linejoin:round;-inkscape-stroke:none;shape-rendering:crispEdges"
     d="m 8.0000173,0.05911996 c -0.2926697,0 -0.5848659,0.06761233 -0.8521139,0.20119486 a 1.0000999,1.0000999 0 0 0 -9.41e-5,9.412e-5 L 1.0536022,3.3070977 a 1.0000999,1.0000999 0 0 0 -9.41e-5,0 C 0.40865688,3.6295327 1.785375e-5,4.2901077 1.785375e-5,5.0115095 v 5.9754585 c 0,0.721395 0.40597032625,1.382393 1.05349264625,1.706158 a 1.0000999,1.0000999 0 0 0 9.41e-5,0 l 6.094209,3.046691 a 1.0000999,1.0000999 0 0 0 9.41e-5,9.5e-5 c 0.5362329,0.268 1.1679947,0.268 1.7042276,0 a 1.0000999,1.0000999 0 0 0 9.41e-5,-9.5e-5 l 6.0942096,-3.046691 a 1.0000999,1.0000999 0 0 0 9.4e-5,-9.4e-5 c 0.647454,-0.32377 1.053493,-0.984627 1.053493,-1.706066 V 5.0115095 c 0,-0.7214272 -0.40869,-1.3819735 -1.053493,-1.7044118 a 1.0000999,1.0000999 0 0 0 -9.4e-5,0 L 8.8522228,0.26040672 a 1.0000999,1.0000999 0 0 0 -9.41e-5,-9.411e-5 C 8.5848746,0.12672495 8.2926845,0.05911775 8.0000149,0.05911775 Z m 0,2.01121314 5.9999997,2.9996319 v 5.860294 L 8.0000173,13.929891 2.0000177,10.930259 V 5.069965 Z"
     id="path5436" />
</svg>
