<?xml version="1.0" encoding="UTF-8" standalone="no"?>
<svg
   width="16"
   height="16"
   viewBox="0 0 16 16"
   fill="none"
   version="1.1"
   id="svg188"
   sodipodi:docname="tray-icon-step3Template.svg"
   inkscape:version="1.2.2 (b0a8486541, 2022-12-01)"
   inkscape:export-filename="tray-icon-step3Template.png"
   inkscape:export-xdpi="96"
   inkscape:export-ydpi="96"
   xmlns:inkscape="http://www.inkscape.org/namespaces/inkscape"
   xmlns:sodipodi="http://sodipodi.sourceforge.net/DTD/sodipodi-0.dtd"
   xmlns="http://www.w3.org/2000/svg"
   xmlns:svg="http://www.w3.org/2000/svg">
  <defs
     id="defs192" />
  <sodipodi:namedview
     id="namedview190"
     pagecolor="#ffffff"
     bordercolor="#666666"
     borderopacity="1.0"
     inkscape:showpageshadow="2"
     inkscape:pageopacity="0.0"
     inkscape:pagecheckerboard="0"
     inkscape:deskcolor="#d1d1d1"
     showgrid="true"
     inkscape:zoom="6.546262"
     inkscape:cx="39.259046"
     inkscape:cy="9.7001923"
     inkscape:window-width="1920"
     inkscape:window-height="1131"
     inkscape:window-x="0"
     inkscape:window-y="0"
     inkscape:window-maximized="1"
     inkscape:current-layer="svg188">
    <inkscape:grid
       type="xygrid"
       id="grid652" />
  </sodipodi:namedview>
  <path
     id="path704"
     style="opacity:0.5;fill:#000000;stroke-width:0.538536"
     d="M 3.656966,4.9942691 C 3.293811,4.9942691 3,5.2888446 3,5.6529871 V 9.9942696 H 13 V 5.6529871 c 0,-0.3641425 -0.293792,-0.658718 -0.656966,-0.658718 z m 0.618604,1.000782 h 0.467869 c 0.145947,0 0.265125,0.1195101 0.265125,0.2658324 v 2.4706803 c 0,0.1463247 -0.119178,0.2658334 -0.265125,0.2658334 H 4.27557 c -0.145951,0 -0.265126,-0.1195087 -0.265126,-0.2658334 V 6.2608835 C 4.010443,6.1145612 4.129619,5.9950511 4.27557,5.9950511 Z m 1.99624,0 h 0.467869 c 0.145949,0 0.265125,0.1195101 0.265125,0.2658324 v 2.4706803 c 0,0.1463247 -0.119176,0.2658334 -0.265125,0.2658334 H 6.27181 c -0.145951,0 -0.265126,-0.1195087 -0.265126,-0.2658334 V 6.2608835 c 0,-0.1463223 0.119175,-0.2658324 0.265126,-0.2658324 z m 1.996241,0 h 0.467868 c 0.145949,0 0.265125,0.1195101 0.265125,0.2658324 v 2.4706803 c 0,0.1463247 -0.119176,0.2658334 -0.265125,0.2658334 H 8.268051 c -0.145951,0 -0.265126,-0.1195087 -0.265126,-0.2658334 V 6.2608835 C 8.002924,6.1145612 8.1221,5.9950511 8.268051,5.9950511 Z"
     sodipodi:nodetypes="ssccsssssssssscsssssssscsssssssscs" />
  <path
     d="m 3,9.9942691 h 10 v 0.4265899 c 0,0.316713 -0.252332,0.57341 -0.563555,0.57341 H 3.563555 C 3.252313,10.994269 3,10.737572 3,10.420859 Z"
     fill="#472ea8"
     id="path706"
     style="fill:#000000;stroke-width:0.538536"
     sodipodi:nodetypes="ccssssc" />
  <path
     id="path708"
     style="color:#000000;fill:#000000;stroke-width:0.538536;stroke-linecap:square;stroke-linejoin:round;-inkscape-stroke:none;shape-rendering:crispEdges"
     d="m 7.972656,0.074219 c -0.09212,-0.002782 -0.184382,3.11e-4 -0.27539,0.009765 -0.0019,3.08e-4 -0.004,-3.13e-4 -0.0059,0 C 7.505003,0.114839 7.322546,0.17174 7.150351,0.257812 L 1.054648,3.304688 C 0.860341,3.401844 0.691578,3.532622 0.544882,3.683594 0.434752,3.806121 0.337271,3.94087 0.257772,4.085938 L 8.255859,0.099609 C 8.161773,0.086634 8.066739,0.07706 7.972656,0.074219 Z M 9.515625,0.587891 0.001953,5.330078 v 0.707031 l 8,-3.986328 2.220703,-1.109375 z m 4.066406,2.033203 -2.222656,1.107422 0.710937,0.355468 2.222657,-1.107422 z m 2.419922,3.974609 -2,0.996094 v 3.318359 0.01758 l -6,3 -3.349609,-1.675781 -2.222656,1.109375 4.720703,2.359375 c 0.267255,0.133588 0.55889,0.201172 0.851562,0.201172 0.292669,0 0.584316,-0.06759 0.851563,-0.201172 l 6.09375,-3.046875 c 0.644851,-0.322435 1.054687,-0.983678 1.054687,-1.705078 z m -14,1.798828 -2,0.996094 v 0.710938 l 2,-0.996094 z" />
</svg>
